<svg id="Layer_1" enable-background="new 0 0 467.415 467.415" height="512" viewBox="0 0 467.415 467.415" width="512"
     xmlns="http://www.w3.org/2000/svg">
    <g>
        <g>
            <g>
                <g>
                    <path fill="#767676"
                          d="m335.419 321.324h-139.991c-6.627 0-12-5.373-12-12s5.373-12 12-12h139.992c6.627 0 12 5.373 12 12s-5.373 12-12.001 12z"/>
                </g>
                <g>
                    <ellipse fill="#767676" cx="139.363" cy="309.324" rx="19.368" ry="19.304"/>
                </g>
            </g>
            <g>
                <g>
                    <path fill="#767676"
                          d="m335.419 398.18h-139.991c-6.627 0-12-5.373-12-12s5.373-12 12-12h139.992c6.627 0 12 5.373 12 12s-5.373 12-12.001 12z"/>
                </g>
                <g>
                    <ellipse fill="#767676" cx="139.363" cy="386.18" rx="19.368" ry="19.304"/>
                </g>
            </g>
            <g>
                <g>
                    <path fill="#767676"
                          d="m335.419 244.467h-139.991c-6.627 0-12-5.373-12-12s5.373-12 12-12h139.992c6.627 0 12 5.373 12 12s-5.373 12-12.001 12z"/>
                </g>
                <g>
                    <ellipse fill="#767676" cx="139.363" cy="232.467" rx="19.368" ry="19.304"/>
                </g>
            </g>
            <g>
                <path fill="#767676"
                      d="m371.707 467.415h-276c-17.645 0-32-14.355-32-32v-339.991c0-6.627 5.373-12 12-12s12 5.373 12 12v339.991c0 4.411 3.589 8 8 8h276c4.411 0 8-3.589 8-8v-339.991c0-6.627 5.373-12 12-12s12 5.373 12 12v339.991c0 17.645-14.355 32-32 32z"/>
            </g>
        </g>
        <g>
            <path fill="#767676"
                  d="m232.36 194.106c-2.269 0-4.535-.642-6.517-1.923-45.556-29.461-111.244-82.942-95.688-145.439 11.46-46.036 70.888-64.121 102.57-26.322 32.059-38.134 93.239-16.172 104.617 28.924 15.808 62.65-53.043 114.822-98.683 142.973-1.932 1.192-4.117 1.787-6.299 1.787zm-43.444-170.696c-17.067 0-31.44 12.932-35.472 29.13-8.325 33.444 21.144 76.227 79.07 115.289 59.401-38.178 89.793-79.968 81.557-112.611-8.551-33.888-56.486-42.531-69.873-7.381-1.731 4.546-6.037 7.598-10.9 7.725-4.868.108-9.323-2.694-11.29-7.145-7.088-16.036-19.038-25.007-33.092-25.007z"/>
        </g>
    </g>
</svg>
