<svg id="Layer_1" height="512" viewBox="0 0 512 512" width="512" xmlns="http://www.w3.org/2000/svg" data-name="Layer 1">
    <path fill="#767676"
          d="m251.229 433.125-6.161 3.083-181.068-80.474v-211.32l177 78.667a10.673 10.673 0 0 0 8.667 0l177-78.667v90.253a10.667 10.667 0 0 0 21.333 0v-106.667a10.669 10.669 0 0 0 -6.333-9.747l-192-85.333a10.687 10.687 0 0 0 -8.667 0l-192 85.333a10.669 10.669 0 0 0 -6.333 9.747v234.667a10.665 10.665 0 0 0 6.333 9.744l192 85.333a10.663 10.663 0 0 0 9.1-.2l10.667-5.333a10.668 10.668 0 1 0 -9.542-19.083zm-5.9-231.464-75.462-33.541 165.133-73.391c.19-.085.348-.209.53-.3l75.539 33.571zm0-147.323 64.011 28.448-164.34 73.04a10.525 10.525 0 0 0 -1.224.7l-64.176-28.526z"/>
    <path fill="#767676"
          d="m362.667 245.333a106.667 106.667 0 1 0 106.666 106.667 106.786 106.786 0 0 0 -106.666-106.667zm0 192a85.333 85.333 0 1 1 85.333-85.333 85.431 85.431 0 0 1 -85.333 85.333z"/>
    <path fill="#767676"
          d="m402.208 312.458a10.663 10.663 0 0 0 -15.083 0l-24.458 24.458-24.458-24.458a10.666 10.666 0 0 0 -15.083 15.083l24.457 24.459-24.458 24.458a10.666 10.666 0 1 0 15.083 15.083l24.458-24.458 24.458 24.458a10.666 10.666 0 1 0 15.083-15.083l-24.457-24.458 24.458-24.458a10.663 10.663 0 0 0 0-15.084z"/>
</svg>
