<svg id="Layer_1" enable-background="new 0 0 512 512" height="512" viewBox="0 0 512 512" width="512"
     xmlns="http://www.w3.org/2000/svg">
    <path fill="#767676"
          d="m256 109.556c-53.034 0-96.181 43.146-96.181 96.18s43.146 96.181 96.181 96.181c53.034 0 96.18-43.146 96.18-96.181 0-53.033-43.146-96.18-96.18-96.18zm0 168.361c-39.801 0-72.181-32.38-72.181-72.181 0-39.8 32.38-72.18 72.181-72.18 39.8 0 72.18 32.38 72.18 72.18 0 39.801-32.38 72.181-72.18 72.181zm0-277.917c-141.159 0-256 114.841-256 256s114.841 256 256 256 256-114.841 256-256-114.841-256-256-256zm168.627 415.167c-7.012-55.248-40.984-103.666-92.19-129.486-5.917-2.984-13.133-.605-16.118 5.312-2.984 5.918-.605 13.134 5.312 16.118 49.467 24.942 80.23 74.369 80.36 129.052-39.899 32.393-90.713 51.837-145.991 51.837-55.297 0-106.127-19.457-146.032-51.87.026-.322.049-.645.049-.974 0-54.809 30.038-102.677 80.351-128.045 5.917-2.984 8.296-10.2 5.312-16.118s-10.199-8.294-16.118-5.312c-27.815 14.025-51.157 34.844-67.501 60.206-13.429 20.839-21.844 44.434-24.817 69.142-39.186-41.56-63.244-97.535-63.244-159.029 0-127.925 104.075-232 232-232s232 104.075 232 232c0 61.562-24.11 117.593-63.373 159.167z"/>
</svg>
